<svg width="108" height="34" viewBox="0 0 108 34" fill="none" xmlns="http://www.w3.org/2000/svg">
<path d="M1.82222 20.0928C1.81707 20.8525 1.81707 21.6117 1.82222 22.3706C1.81672 22.509 1.85607 22.6455 1.9344 22.7597C2.01273 22.874 2.12586 22.9599 2.25694 23.0047C2.59135 23.123 2.94248 23.1963 3.30518 23.2928V19.177C2.94119 19.2645 2.61707 19.3223 2.30582 19.4227C2.16144 19.4634 2.03508 19.5518 1.94729 19.6735C1.85949 19.7951 1.81541 19.9429 1.82222 20.0928V20.0928Z" fill="#F8B133"/>
<path d="M32.2407 22.3793C32.2497 21.6204 32.2703 20.8603 32.2265 20.1027C32.2136 19.9838 32.175 19.8692 32.1135 19.7666C32.052 19.664 31.969 19.576 31.8703 19.5085C31.5397 19.3336 31.1461 19.2744 30.75 19.1587V23.2912C31.1011 23.2089 31.4137 23.151 31.7185 23.0597C31.8706 23.0238 32.0057 22.9365 32.1009 22.8126C32.196 22.6886 32.2454 22.5355 32.2407 22.3793V22.3793Z" fill="#F8B133"/>
<path d="M29.1563 23.9922C29.2284 22.1633 29.2168 20.3292 29.1743 18.499C29.1486 17.3607 28.2084 16.5028 27.0689 16.4192C26.4399 16.3742 25.8161 16.2906 25.1872 16.2443C23.6592 16.1299 22.1325 15.9961 20.6007 15.9305C19.4264 15.8803 18.247 15.9215 17.0689 15.9215C13.6837 15.7697 10.3216 16.0643 6.96084 16.4141C5.74669 16.5427 4.89525 17.3916 4.87467 18.625C4.84508 20.3858 4.84123 22.1479 4.89782 23.9061C4.95184 25.5704 6.48367 27.1408 8.14412 27.2745C10.0451 27.4263 11.8933 27.2848 13.6862 26.4848C15.8573 25.5176 18.1235 25.4971 20.2972 26.4527C22.1042 27.2488 23.9538 27.4199 25.8702 27.2823C27.5036 27.1627 29.0933 25.6295 29.1563 23.9922ZM7.90875 18.9504C7.70622 18.9516 7.51111 18.8743 7.36435 18.7348C7.21758 18.5952 7.13059 18.4042 7.12161 18.2019C7.11786 17.9972 7.19556 17.7994 7.33763 17.6521C7.4797 17.5047 7.6745 17.4198 7.87917 17.416C8.08384 17.4123 8.28161 17.49 8.42899 17.6321C8.57636 17.7741 8.66127 17.9689 8.66502 18.1736C8.66412 18.3758 8.58479 18.5698 8.44372 18.7147C8.30266 18.8596 8.11088 18.9441 7.90875 18.9504V18.9504ZM10.9364 18.9504C10.7867 18.9484 10.6409 18.9023 10.5173 18.8178C10.3937 18.7334 10.2977 18.6144 10.2413 18.4757C10.185 18.337 10.1708 18.1847 10.2005 18.038C10.2302 17.8913 10.3025 17.7566 10.4084 17.6507C10.5142 17.5448 10.6489 17.4725 10.7957 17.4428C10.9424 17.4131 11.0946 17.4273 11.2333 17.4837C11.3721 17.54 11.4911 17.636 11.5755 17.7596C11.6599 17.8833 11.7061 18.029 11.7081 18.1787C11.7113 18.2813 11.6935 18.3834 11.6556 18.4787C11.6177 18.5741 11.5606 18.6606 11.4879 18.733C11.4152 18.8054 11.3284 18.862 11.2328 18.8994C11.1373 18.9368 11.0351 18.9542 10.9325 18.9504H10.9364Z" fill="#F8B133"/>
<path d="M7.16255 14.8488C8.92718 14.7202 10.688 14.5337 12.45 14.3549H14.2391H19.8352L21.695 14.3832C23.506 14.535 25.3165 14.6975 27.1265 14.8707C28.4346 14.9993 29.4416 15.5716 30.0847 16.6134C30.5481 16.4994 30.9538 16.2197 31.2251 15.8271C31.4964 15.4346 31.6147 14.9562 31.5576 14.4825C31.5004 14.0087 31.2719 13.5722 30.915 13.2553C30.5581 12.9385 30.0976 12.7632 29.6204 12.7626H19.4224C19.2217 11.9909 19.0249 11.2192 18.8269 10.4604C18.7175 10.0398 18.5066 9.8456 18.0809 9.83531C17.4146 9.81987 16.7493 9.81987 16.0847 9.83531C15.6384 9.8456 15.4417 10.0282 15.313 10.4784C15.2024 10.8642 15.0905 11.2501 14.9838 11.6359L14.6751 12.7639H4.44616C3.97085 12.7648 3.51216 12.9389 3.15601 13.2537C2.79986 13.5685 2.57067 14.0023 2.51137 14.4739C2.45206 14.9454 2.56671 15.4225 2.83384 15.8156C3.10097 16.2088 3.50226 16.491 3.96255 16.6096C4.67252 15.5099 5.74519 14.953 7.16255 14.8488Z" fill="#F8B133"/>
<path d="M21.1454 29.6205C18.4948 30.6661 15.5443 30.656 12.901 29.5922C12.7823 29.5443 12.6552 29.5202 12.5272 29.5213C12.3991 29.5224 12.2725 29.5487 12.1547 29.5988C12.0368 29.6488 11.9299 29.7216 11.8402 29.8129C11.7504 29.9043 11.6795 30.0124 11.6315 30.1311C11.5836 30.2499 11.5595 30.3769 11.5606 30.505C11.5617 30.633 11.588 30.7596 11.6381 30.8775C11.6881 30.9954 11.7609 31.1022 11.8522 31.192C11.9436 31.2817 12.0517 31.3526 12.1704 31.4006C15.2782 32.6524 18.7477 32.6648 21.8643 31.4353C21.986 31.3899 22.0973 31.3207 22.1919 31.2317C22.2865 31.1428 22.3624 31.0358 22.4151 30.9172C22.4678 30.7985 22.4963 30.6706 22.499 30.5407C22.5017 30.4109 22.4784 30.2819 22.4306 30.1612C22.3828 30.0405 22.3113 29.9305 22.2205 29.8377C22.1297 29.745 22.0212 29.6713 21.9015 29.6209C21.7819 29.5706 21.6533 29.5446 21.5235 29.5445C21.3936 29.5445 21.2651 29.5703 21.1454 29.6205V29.6205Z" fill="#F8B133"/>
<path d="M3.98828 11.4946C4.13792 11.4699 4.28934 11.4574 4.44101 11.4573H5.42494C5.48667 11.2914 5.55355 11.1281 5.62044 10.9647C6.88057 7.99376 9.24735 5.62974 12.2198 4.37309C12.2597 4.35508 12.3008 4.33965 12.3484 4.32293V4.90942C12.3635 5.08662 12.4446 5.25169 12.5756 5.37198C12.7066 5.49227 12.878 5.55901 13.0558 5.55901C13.2336 5.55901 13.405 5.49227 13.536 5.37198C13.667 5.25169 13.7481 5.08662 13.7632 4.90942V2.70106C13.7635 2.41963 13.8754 2.1498 14.0743 1.95068C14.2732 1.75155 14.5429 1.63937 14.8243 1.63869H19.2384C19.5185 1.64139 19.7863 1.75448 19.9835 1.95338C20.1807 2.15229 20.2915 2.42096 20.2918 2.70106V4.91457C20.3069 5.09177 20.388 5.25684 20.519 5.37712C20.65 5.49741 20.8214 5.56415 20.9992 5.56415C21.1771 5.56415 21.3484 5.49741 21.4794 5.37712C21.6104 5.25684 21.6915 5.09177 21.7066 4.91457V4.32293L21.8352 4.37823C24.8017 5.63664 27.1633 7.99825 28.4217 10.9647C28.4899 11.1281 28.5503 11.2914 28.6172 11.4573H29.6153C29.7617 11.4573 29.9079 11.4685 30.0526 11.4908C29.4017 9.51953 28.3133 7.72108 26.8688 6.23009C25.4244 4.7391 23.6614 3.5942 21.7118 2.88113V2.70106C21.7111 2.04315 21.4495 1.41235 20.9844 0.947009C20.5193 0.481669 19.8886 0.219771 19.2307 0.21875H14.8166C14.1587 0.219771 13.528 0.481669 13.0629 0.947009C12.5978 1.41235 12.3362 2.04315 12.3355 2.70106V2.89142C10.3854 3.60302 8.62155 4.74657 7.176 6.23644C5.73045 7.72632 4.64068 9.52391 3.98828 11.4946V11.4946Z" fill="#F8B133"/>
<path d="M5.50508 27.8664L3.56425 29.8073C3.14935 29.4907 2.636 29.3308 2.11473 29.3558V28.1983C2.37364 28.1269 2.59787 27.964 2.74585 27.7398C2.89383 27.5157 2.95552 27.2455 2.91948 26.9793C2.88344 26.7132 2.75212 26.4691 2.54987 26.2924C2.34761 26.1157 2.08814 26.0183 1.81955 26.0183C1.55097 26.0183 1.2915 26.1157 1.08924 26.2924C0.886982 26.4691 0.755661 26.7132 0.719622 26.9793C0.683584 27.2455 0.745273 27.5157 0.893253 27.7398C1.04123 27.964 1.26546 28.1269 1.52438 28.1983V29.4574C1.07796 29.6045 0.689792 29.8896 0.415836 30.2715C0.14188 30.6534 -0.00370525 31.1125 7.16726e-05 31.5825C0.00384859 32.0525 0.156793 32.5092 0.436851 32.8866C0.716909 33.2641 1.10961 33.5429 1.55833 33.6828C2.00705 33.8227 2.4886 33.8164 2.93355 33.665C3.3785 33.5135 3.76386 33.2247 4.03406 32.8401C4.30425 32.4555 4.44533 31.995 4.43695 31.5251C4.42856 31.0551 4.27114 30.6 3.9874 30.2253L5.91666 28.2845C5.97209 28.2292 6.0033 28.1542 6.00342 28.0759C6.00354 27.9976 5.97256 27.9225 5.9173 27.8671C5.86204 27.8117 5.78702 27.7804 5.70875 27.7803C5.63048 27.7802 5.55537 27.8112 5.49994 27.8664H5.50508Z" fill="#F8B133"/>
<path d="M30.5077 29.807L28.5668 27.8661C28.5114 27.8109 28.4363 27.7799 28.358 27.78C28.2797 27.7802 28.2047 27.8114 28.1495 27.8668C28.0942 27.9222 28.0632 27.9973 28.0633 28.0756C28.0635 28.1539 28.0947 28.2289 28.1501 28.2842L30.0961 30.225C29.8229 30.5817 29.6654 31.0135 29.6446 31.4623H28.4202C28.3488 31.2034 28.1859 30.9791 27.9618 30.8312C27.7376 30.6832 27.4674 30.6215 27.2013 30.6575C26.9351 30.6936 26.6911 30.8249 26.5143 31.0272C26.3376 31.2294 26.2402 31.4889 26.2402 31.7575C26.2402 32.026 26.3376 32.2855 26.5143 32.4878C26.6911 32.69 26.9351 32.8214 27.2013 32.8574C27.4674 32.8934 27.7376 32.8317 27.9618 32.6838C28.1859 32.5358 28.3488 32.3116 28.4202 32.0526H29.6948C29.7993 32.521 30.0527 32.9428 30.4172 33.2549C30.7817 33.5669 31.2375 33.7525 31.7163 33.7836C32.1951 33.8147 32.6711 33.6898 33.0729 33.4275C33.4747 33.1653 33.7807 32.7798 33.9449 32.329C34.1091 31.8781 34.1227 31.3862 33.9838 30.9269C33.8448 30.4677 33.5607 30.0659 33.174 29.7818C32.7873 29.4976 32.319 29.3465 31.8392 29.3511C31.3594 29.3556 30.894 29.5156 30.5128 29.807H30.5077Z" fill="#F8B133"/>
<path d="M28.5077 6.07336C28.5465 6.07328 28.5849 6.06552 28.6206 6.0505C28.6564 6.03549 28.6888 6.01353 28.7161 5.9859L30.509 4.19297C30.904 4.49518 31.3892 4.65557 31.8865 4.64828V5.40197C31.6275 5.47326 31.4031 5.63606 31.255 5.86018C31.1069 6.0843 31.0451 6.35453 31.081 6.62076C31.117 6.88698 31.2483 7.13112 31.4506 7.30791C31.6529 7.48469 31.9124 7.58212 32.181 7.58212C32.4497 7.58212 32.7092 7.48469 32.9115 7.30791C33.1137 7.13112 33.245 6.88698 33.281 6.62076C33.317 6.35453 33.2552 6.0843 33.107 5.86018C32.9589 5.63606 32.7346 5.47326 32.4756 5.40197V4.56082C32.9313 4.42947 33.333 4.15559 33.6218 3.77933C33.9106 3.40306 34.0713 2.94419 34.0803 2.46996C34.0894 1.99573 33.9463 1.53107 33.672 1.14408C33.3977 0.757098 33.0067 0.46813 32.5563 0.319527C32.1059 0.170924 31.6197 0.1705 31.169 0.318317C30.7183 0.466134 30.3268 0.754419 30.0518 1.14093C29.7769 1.52743 29.633 1.99184 29.6412 2.46608C29.6494 2.94033 29.8093 3.39948 30.0974 3.77625L28.2968 5.56918C28.2557 5.61054 28.2278 5.66311 28.2165 5.72027C28.2053 5.77744 28.2111 5.83667 28.2334 5.89053C28.2556 5.94438 28.2933 5.99046 28.3416 6.02299C28.39 6.05552 28.4469 6.07304 28.5051 6.07336H28.5077Z" fill="#F8B133"/>
<path d="M3.56376 4.19301L5.35669 5.98594C5.41183 6.04152 5.48676 6.07297 5.56505 6.0734C5.62332 6.07308 5.6802 6.05556 5.72855 6.02303C5.7769 5.9905 5.81456 5.94442 5.83682 5.89057C5.85907 5.83671 5.86493 5.77749 5.85365 5.72032C5.84237 5.66315 5.81445 5.61058 5.77341 5.56922L3.98691 3.77629C4.16339 3.54533 4.29262 3.28184 4.36721 3.00091C4.4418 2.71997 4.4603 2.42709 4.42164 2.139H5.58949C5.66091 2.39791 5.82379 2.62214 6.04793 2.77012C6.27207 2.9181 6.54227 2.97979 6.80842 2.94375C7.07458 2.90771 7.31863 2.77639 7.49535 2.57413C7.67207 2.37188 7.76945 2.1124 7.76945 1.84382C7.76945 1.57524 7.67207 1.31576 7.49535 1.11351C7.31863 0.911249 7.07458 0.779928 6.80842 0.743889C6.54227 0.707851 6.27207 0.76954 6.04793 0.91752C5.82379 1.0655 5.66091 1.28973 5.58949 1.54864H4.25315C4.1096 1.2168 3.88704 0.925123 3.60488 0.699048C3.32272 0.472974 2.98953 0.31937 2.63437 0.251637C2.27922 0.183903 1.91288 0.204097 1.56732 0.310456C1.22176 0.416815 0.90747 0.606109 0.651867 0.861826C0.254854 1.25959 0.0236917 1.79328 0.00511861 2.35497C-0.0134544 2.91665 0.181948 3.46444 0.551816 3.88757C0.921685 4.31069 1.43842 4.57759 1.99755 4.63429C2.55668 4.691 3.11648 4.53327 3.56376 4.19301V4.19301Z" fill="#F8B133"/>
<path d="M39.3047 32.3102V21.9617C39.3047 21.5496 39.3859 21.1416 39.5436 20.7609C39.7013 20.3802 39.9325 20.0344 40.224 19.7431C40.5154 19.4517 40.8614 19.2207 41.2421 19.0631C41.6228 18.9056 42.0309 18.8245 42.443 18.8247H46.1652C46.1652 19.4629 45.9116 20.075 45.4603 20.5263C45.009 20.9776 44.3969 21.2311 43.7587 21.2311H43.2314C42.8854 21.2325 42.554 21.3709 42.3098 21.6161C42.0656 21.8612 41.9285 22.1932 41.9285 22.5392V24.952H44.133C44.4492 24.952 44.7525 25.0777 44.9761 25.3012C45.1997 25.5248 45.3253 25.8281 45.3253 26.1443C45.3253 26.4605 45.1997 26.7638 44.9761 26.9874C44.7525 27.211 44.4492 27.3366 44.133 27.3366H41.9285V32.3167C41.9285 32.4885 41.8946 32.6587 41.8288 32.8175C41.763 32.9763 41.6665 33.1206 41.5449 33.242C41.4233 33.3635 41.279 33.4598 41.1201 33.5255C40.9613 33.5912 40.7911 33.6249 40.6192 33.6247V33.6247C40.4463 33.6256 40.275 33.5921 40.1151 33.5264C39.9553 33.4606 39.81 33.3638 39.6878 33.2416C39.5656 33.1194 39.4688 32.9741 39.403 32.8143C39.3373 32.6544 39.3039 32.4831 39.3047 32.3102V32.3102Z" fill="#F8B133"/>
<path d="M58.0424 19.5216C58.7387 18.9153 59.72 18.6127 60.9865 18.6135C62.2529 18.6144 63.239 18.9171 63.9447 19.5216C64.6486 20.1218 65.0002 20.9792 64.9993 22.0939V26.3138H63.6553C63.3169 26.3138 62.9924 26.1794 62.7531 25.9401C62.5138 25.7009 62.3794 25.3763 62.3794 25.038V22.0965C62.3794 21.7106 62.2726 21.4418 62.0617 21.2733C61.8508 21.1048 61.4997 21.0161 61.0071 21.0161C60.5145 21.0161 60.1415 21.0997 59.9305 21.2733C59.7196 21.447 59.6141 21.7158 59.6141 22.0965V30.3537C59.6141 30.7336 59.723 31.0114 59.9408 31.1872C60.1586 31.3629 60.514 31.4487 61.0071 31.4444C61.4148 31.4444 61.7145 31.3878 61.9074 31.2759C61.9991 31.2235 62.0785 31.152 62.1404 31.0664C62.2023 30.9808 62.2452 30.883 62.2662 30.7794V30.773C62.3277 30.4866 62.4852 30.2298 62.7125 30.045C62.9398 29.8602 63.2234 29.7586 63.5164 29.7569H64.9312C65.0015 31.0928 64.7061 32.1021 64.045 32.7846C63.3839 33.4671 62.3777 33.8101 61.0263 33.8135C59.7608 33.8135 58.7725 33.5108 58.0617 32.9055C57.3509 32.3001 56.9963 31.4495 56.9981 30.3537V22.0965C56.9981 20.9835 57.3462 20.1252 58.0424 19.5216Z" fill="#F8B133"/>
<path d="M78.6195 19.5216C79.3372 18.9153 80.3503 18.6127 81.6587 18.6135C82.9526 18.6135 83.955 18.9162 84.6658 19.5216C85.3766 20.1269 85.732 20.9844 85.732 22.0939V30.3537C85.732 31.4684 85.3766 32.3228 84.6658 32.9171C83.955 33.5113 82.9526 33.8114 81.6587 33.8174C80.3511 33.8174 79.338 33.5147 78.6195 32.9093C77.901 32.304 77.5421 31.4521 77.543 30.3537V22.0965C77.543 20.9835 77.9018 20.1252 78.6195 19.5216ZM80.5153 31.1704C80.7468 31.3531 81.1301 31.4444 81.6652 31.4444C82.1861 31.4444 82.5578 31.3569 82.7828 31.1872C83.0079 31.0174 83.1211 30.7331 83.1211 30.3537V22.0965C83.1211 21.7158 83.0122 21.4414 82.7944 21.2733C82.5758 21.1036 82.2002 21.0161 81.6652 21.0161C81.1301 21.0161 80.7288 21.1036 80.5076 21.2733C80.2864 21.4431 80.1706 21.7196 80.1706 22.0862V30.3537C80.1603 30.7126 80.2761 30.9878 80.5153 31.1704Z" fill="#F8B133"/>
<path d="M97.5277 18.8247C98.216 18.825 98.876 19.0986 99.3626 19.5853C99.8493 20.072 100.123 20.7319 100.123 21.4202V25.7237C100.123 26.1173 100.236 26.3986 100.46 26.5675C100.685 26.7364 101.071 26.8221 101.618 26.8247C102.153 26.8247 102.528 26.736 102.747 26.561C102.966 26.3861 103.074 26.107 103.074 25.7276V21.4202C103.074 20.7319 103.348 20.072 103.834 19.5853C104.321 19.0986 104.981 18.825 105.669 18.8247V18.8247V25.8729C105.669 27.7165 104.748 28.8213 102.905 29.1874V32.2742C102.906 32.4449 102.873 32.6139 102.808 32.7717C102.743 32.9295 102.647 33.073 102.527 33.1939C102.407 33.3148 102.263 33.4108 102.106 33.4763C101.948 33.5418 101.779 33.5757 101.609 33.5758V33.5758C101.266 33.5755 100.937 33.4393 100.694 33.197C100.451 32.9548 100.315 32.6262 100.314 32.2832V29.1964C99.3995 29.0121 98.7029 28.6391 98.2235 28.0774C97.7442 27.5158 97.505 26.784 97.5059 25.8819V18.8337L97.5277 18.8247Z" fill="#F8B133"/>
<path d="M55.0304 34H55.015C54.7135 34 54.4211 33.8972 54.186 33.7084C53.951 33.5197 53.7874 33.2564 53.7224 32.962L51.7044 23.7697L49.6465 32.9646C49.5816 33.2576 49.4189 33.5198 49.1851 33.708C48.9513 33.8962 48.6604 33.9992 48.3603 34V34C48.1628 33.999 47.968 33.9539 47.7901 33.8679C47.6123 33.7819 47.456 33.6572 47.3327 33.5029C47.2093 33.3486 47.1221 33.1686 47.0774 32.9762C47.0326 32.7838 47.0315 32.5838 47.0741 32.391L49.7314 20.3742C49.83 19.9296 50.0774 19.5319 50.4326 19.2468C50.7878 18.9618 51.2296 18.8064 51.6851 18.8064C52.139 18.8071 52.5792 18.9622 52.9333 19.2462C53.2874 19.5302 53.5344 19.9262 53.6336 20.3691L56.3256 32.3884C56.3691 32.5822 56.3683 32.7833 56.3234 32.9768C56.2785 33.1703 56.1905 33.3512 56.0661 33.5061C55.9416 33.6609 55.7839 33.7857 55.6046 33.8712C55.4253 33.9567 55.229 34.0007 55.0304 34V34Z" fill="#F8B133"/>
<path d="M50.3633 32.6236V32.6687C50.3636 32.3151 50.5043 31.9762 50.7544 31.7264C51.0045 31.4765 51.3435 31.3362 51.697 31.3362V31.3362C52.0504 31.3362 52.3894 31.4766 52.6392 31.7265C52.8891 31.9763 53.0295 32.3153 53.0295 32.6687V32.6249C53.0288 32.9779 52.8882 33.3161 52.6383 33.5655C52.3885 33.8148 52.05 33.9548 51.697 33.9548C51.3438 33.9548 51.0049 33.8147 50.7548 33.5651C50.5048 33.3155 50.364 32.9769 50.3633 32.6236V32.6236Z" fill="#F8B133"/>
<path d="M88.6269 19.5496C89.3317 18.9443 90.3255 18.6416 91.6082 18.6416C92.891 18.6416 93.8882 18.9443 94.5999 19.5496C95.3124 20.1636 95.6687 21.0257 95.6687 22.1361V27.6525H92.1844L95.2622 31.8738C95.3938 32.0551 95.4727 32.2692 95.4902 32.4925C95.5077 32.7158 95.4632 32.9396 95.3616 33.1392C95.2599 33.3388 95.105 33.5064 94.9141 33.6236C94.7232 33.7407 94.5036 33.8028 94.2796 33.803C94.0875 33.8032 93.8981 33.7577 93.727 33.6703C93.5559 33.5828 93.4081 33.456 93.2957 33.3001L90.2192 29.0557V33.9921H88.7851C88.4626 33.9921 88.1533 33.8641 87.9252 33.6362C87.697 33.4083 87.5687 33.0991 87.5684 32.7766V22.14C87.5684 21.0133 87.9212 20.1499 88.6269 19.5496ZM93.0179 25.2448V22.14C93.0179 21.7559 92.9111 21.478 92.6976 21.3066C92.4841 21.1351 92.1278 21.0493 91.6288 21.0493C91.1143 21.0493 90.7529 21.1355 90.5394 21.3066C90.3259 21.4776 90.2192 21.7554 90.2192 22.14V25.2384L93.0179 25.2448Z" fill="#F8B133"/>
<path d="M65.9238 18.8489H68.4846V21.2643H67.3386C66.9634 21.2643 66.6035 21.1153 66.3382 20.8499C66.0729 20.5846 65.9238 20.2247 65.9238 19.8495V18.8502V18.8489Z" fill="#F8B133"/>
<path d="M75.4075 18.8489C75.4077 19.166 75.3454 19.4801 75.2241 19.7731C75.1029 20.0662 74.9251 20.3325 74.7009 20.5568C74.4767 20.7811 74.2105 20.959 73.9175 21.0804C73.6246 21.2018 73.3105 21.2643 72.9934 21.2643H70.2153V30.4103C70.2153 30.7807 70.3289 31.0512 70.5561 31.2219C70.785 31.3929 71.1619 31.4791 71.6892 31.4791C72.2165 31.4791 72.5895 31.3929 72.8223 31.2219C73.0551 31.0508 73.1644 30.7807 73.1644 30.4103V26.4952H74.4378C74.7915 26.4952 75.1307 26.6357 75.3809 26.8858C75.631 27.136 75.7715 27.4752 75.7715 27.8289V30.4013C75.7715 31.4988 75.4153 32.3503 74.7027 32.9556C73.9902 33.561 72.9784 33.8637 71.6673 33.8637C70.3709 33.8637 69.363 33.561 68.6436 32.9556C67.9242 32.3503 67.5645 31.4988 67.5645 30.4013V18.8489H75.4075Z" fill="#F8B133"/>
<path d="M97.1582 0.235352H99.719V2.6495H98.5743C98.1991 2.6495 97.8392 2.50044 97.5739 2.23512C97.3085 1.96979 97.1595 1.60993 97.1595 1.23471V0.235352H97.1582Z" fill="#F8B133"/>
<path d="M53.1933 10.5788C53.5218 10.5788 53.8368 10.7093 54.0691 10.9415C54.3014 11.1738 54.4318 11.4889 54.4318 11.8174C54.4473 12.2161 54.5545 12.4939 54.7534 12.6508C55.0106 12.8643 55.4308 12.9715 56.0138 12.9723C56.2693 12.9736 56.524 12.9447 56.7727 12.8862C56.9686 12.847 57.154 12.7668 57.3167 12.6508C57.4449 12.5499 57.5468 12.4196 57.614 12.2709C57.6812 12.1223 57.7115 11.9597 57.7026 11.7968C57.6958 11.5412 57.6335 11.2902 57.5199 11.0611C57.3935 10.791 57.2157 10.5481 56.9965 10.346L53.2357 6.77427C52.7842 6.35767 52.4242 5.8518 52.1785 5.28874C51.971 4.78285 51.8676 4.14534 51.8685 3.3762C51.8685 2.29325 52.2115 1.45981 52.8974 0.875884C53.5834 0.291961 54.5652 0 55.8428 0C57.2396 0 58.2972 0.300107 59.0158 0.900321C59.7343 1.50054 60.1086 2.37685 60.1386 3.52926V3.8328C60.1405 3.9962 60.11 4.15837 60.0489 4.30994C59.9878 4.46151 59.8973 4.5995 59.7827 4.71594C59.668 4.83239 59.5315 4.925 59.3808 4.98843C59.2302 5.05186 59.0686 5.08486 58.9052 5.08553H58.7418C58.4187 5.08565 58.1083 4.95962 57.8767 4.73428C57.6451 4.50894 57.5107 4.2021 57.5019 3.8791L57.4904 3.44051C57.4942 3.22184 57.4183 3.00925 57.2769 2.84244C57.1334 2.67023 56.9372 2.55001 56.7187 2.50032C56.425 2.38965 56.1141 2.33174 55.8003 2.32926C55.3433 2.32926 54.9943 2.45788 54.7534 2.71511C54.6562 2.82147 54.5815 2.94635 54.5338 3.08227C54.4861 3.21819 54.4663 3.36235 54.4756 3.50611C54.4772 3.78541 54.5354 4.0615 54.6466 4.31768C54.7519 4.577 54.912 4.81044 55.1161 5.00193L58.9412 8.63537C59.3808 9.0516 59.7309 9.55314 59.9701 10.1093C60.1866 10.7119 60.2878 11.3497 60.2685 11.9897C60.2685 13.1155 59.9255 13.9631 59.2396 14.5325C58.5536 15.1018 57.5564 15.3869 56.2479 15.3878C53.3549 15.3878 51.8732 14.2195 51.8029 11.883V11.8328C51.8002 11.6683 51.8302 11.5049 51.8913 11.3522C51.9524 11.1994 52.0434 11.0604 52.1588 10.9432C52.2742 10.826 52.4118 10.7329 52.5636 10.6695C52.7154 10.606 52.8783 10.5734 53.0428 10.5736L53.1933 10.5788Z" fill="#F8B133"/>
<path d="M63.1326 0.940193C63.8315 0.342551 64.8214 0.0291533 66.1024 0H71.8516C73.1627 0 74.1847 0.306109 74.9178 0.918328C75.651 1.53055 76.0162 2.4 76.0137 3.52669V13.8701C76.0137 14.044 75.9794 14.2162 75.9128 14.3769C75.8462 14.5375 75.7486 14.6835 75.6256 14.8064C75.5025 14.9293 75.3565 15.0268 75.1958 15.0932C75.0351 15.1596 74.8628 15.1937 74.6889 15.1936H74.6658C74.4919 15.1937 74.3197 15.1596 74.1591 15.0932C73.9984 15.0267 73.8525 14.9292 73.7296 14.8063C73.6066 14.6834 73.5091 14.5374 73.4427 14.3768C73.3762 14.2161 73.3421 14.0439 73.3423 13.8701V3.52669C73.3423 3.14084 73.2282 2.86302 73.0002 2.69325C72.7721 2.52347 72.3862 2.43773 71.8426 2.43601C71.3007 2.43601 70.9123 2.52519 70.6773 2.70354C70.442 2.88103 70.3249 3.15627 70.3249 3.52669V4.50932L70.3429 13.8675C70.3433 14.0415 70.3093 14.2139 70.2429 14.3748C70.1766 14.5356 70.0791 14.6819 69.9562 14.805C69.8333 14.9282 69.6873 15.0259 69.5265 15.0926C69.3658 15.1592 69.1935 15.1936 69.0195 15.1936V15.1936C68.8457 15.1936 68.6736 15.1593 68.513 15.0928C68.3524 15.0263 68.2065 14.9288 68.0836 14.8059C67.9607 14.683 67.8632 14.5371 67.7967 14.3766C67.7302 14.216 67.696 14.0439 67.696 13.8701V3.52669C67.688 3.14721 67.7765 2.77191 67.9532 2.43601H66.231C65.6754 2.43601 65.2836 2.52519 65.0555 2.70354C64.8278 2.88103 64.7134 3.15627 64.7134 3.52669V13.8701C64.7134 14.2211 64.5739 14.5577 64.3257 14.8059C64.0775 15.0541 63.7409 15.1936 63.3899 15.1936V15.1936C63.216 15.1937 63.0439 15.1596 62.8832 15.0932C62.7226 15.0267 62.5766 14.9292 62.4537 14.8063C62.3307 14.6834 62.2333 14.5374 62.1668 14.3768C62.1004 14.2161 62.0662 14.0439 62.0664 13.8701V3.46238C62.0784 2.37942 62.4338 1.53869 63.1326 0.940193Z" fill="#F8B133"/>
<path d="M88.957 0.930013C89.6618 0.323797 90.6551 0.021117 91.937 0.0219745C93.2189 0.0228319 94.2166 0.328941 94.93 0.940302C95.6408 1.55252 95.9966 2.41469 95.9975 3.5268V9.03934H92.5145L95.5923 13.2606C95.7239 13.4419 95.8028 13.656 95.8203 13.8793C95.8378 14.1026 95.7933 14.3264 95.6916 14.526C95.59 14.7256 95.4351 14.8932 95.2442 15.0104C95.0533 15.1275 94.8337 15.1896 94.6097 15.1898C94.4176 15.1898 94.2281 15.1444 94.0569 15.0572C93.8857 14.9701 93.7375 14.8436 93.6245 14.6882L90.5467 10.4503V15.3866H89.1152C88.7925 15.3866 88.483 15.2584 88.2548 15.0302C88.0266 14.8021 87.8984 14.4926 87.8984 14.1699V3.5268C87.8984 2.40182 88.2513 1.53623 88.957 0.930013ZM93.348 6.62519V3.5268C93.348 3.14094 93.2412 2.86313 93.0277 2.69336C92.8142 2.52358 92.4579 2.43784 91.9589 2.43612C91.4444 2.43612 91.0813 2.52187 90.8695 2.69336C90.656 2.86313 90.548 3.14094 90.548 3.5268V6.62519H93.348Z" fill="#F8B133"/>
<path d="M106.641 0.235352C106.641 0.55249 106.579 0.866521 106.457 1.1595C106.336 1.45248 106.158 1.71868 105.934 1.94287C105.709 2.16706 105.443 2.34486 105.15 2.4661C104.857 2.58735 104.543 2.64967 104.226 2.6495H101.448V11.7968C101.448 12.1672 101.562 12.4377 101.79 12.6083C102.018 12.7794 102.396 12.8656 102.922 12.8656C103.448 12.8656 103.822 12.7807 104.055 12.6083C104.288 12.436 104.397 12.1672 104.397 11.7968V7.88551H105.67C105.846 7.88466 106.02 7.91854 106.183 7.98519C106.345 8.05183 106.493 8.14994 106.618 8.27388C106.742 8.39781 106.841 8.54513 106.908 8.70737C106.976 8.86961 107.01 9.04358 107.01 9.21927V11.7916C107.01 12.8892 106.654 13.7402 105.942 14.3447C105.229 14.9492 104.218 15.2519 102.908 15.2527C101.611 15.2527 100.603 14.95 99.8838 14.3447C99.1644 13.7393 98.8047 12.8883 98.8047 11.7916V0.235352H106.641Z" fill="#F8B133"/>
<path d="M85.2921 15.3864H85.2728C84.9725 15.385 84.6815 15.2815 84.4478 15.0929C84.2141 14.9043 84.0515 14.6418 83.9867 14.3485L81.9597 5.15621L79.9146 14.3511C79.8478 14.6438 79.6835 14.905 79.4486 15.092C79.2137 15.279 78.9222 15.3805 78.622 15.38V15.38C78.4245 15.3791 78.2297 15.334 78.0519 15.248C77.874 15.1619 77.7177 15.0372 77.5944 14.8829C77.471 14.7286 77.3838 14.5487 77.3391 14.3563C77.2943 14.1639 77.2932 13.9639 77.3359 13.771L79.9931 1.75429C80.0925 1.3118 80.3394 0.916252 80.6933 0.632538C81.0471 0.348824 81.4868 0.19379 81.9404 0.192871V0.192871C82.3949 0.192922 82.8359 0.347693 83.1907 0.631717C83.5456 0.91574 83.7932 1.3121 83.8928 1.75557L86.5834 13.7736C86.6268 13.9671 86.6261 14.168 86.5814 14.3613C86.5367 14.5545 86.4491 14.7353 86.3251 14.8901C86.2012 15.045 86.0439 15.17 85.8651 15.2559C85.6863 15.3418 85.4905 15.3864 85.2921 15.3864V15.3864Z" fill="#F8B133"/>
<path d="M80.627 14.0105V14.0542C80.6268 13.8791 80.6611 13.7057 80.728 13.5439C80.7949 13.3821 80.893 13.2351 81.0168 13.1112C81.1405 12.9873 81.2875 12.8891 81.4492 12.822C81.611 12.755 81.7843 12.7205 81.9594 12.7205C82.3132 12.7205 82.6524 12.861 82.9025 13.1111C83.1527 13.3612 83.2932 13.7005 83.2932 14.0542V14.0105C83.2932 14.1856 83.2587 14.359 83.1916 14.5207C83.1246 14.6825 83.0263 14.8294 82.9025 14.9531C82.7786 15.0769 82.6316 15.175 82.4697 15.2419C82.3079 15.3088 82.1345 15.3431 81.9594 15.343V15.343C81.606 15.343 81.2671 15.2026 81.0172 14.9527C80.7673 14.7028 80.627 14.3639 80.627 14.0105Z" fill="#F8B133"/>
<path d="M45.8437 12.7563H44.7595L39.4219 9.60387V8.31769H44.5344C44.5342 8.24316 44.5488 8.16933 44.5772 8.10043C44.6057 8.03154 44.6475 7.96894 44.7002 7.91624C44.7529 7.86354 44.8155 7.82176 44.8844 7.79332C44.9532 7.76488 45.0271 7.75032 45.1016 7.75049H45.8437V8.31769H46.8174C47.0065 8.31769 47.1878 8.39272 47.3217 8.52631C47.4555 8.6599 47.5309 8.84114 47.5312 9.03023V9.03023C47.5309 9.21933 47.4555 9.40056 47.3217 9.53415C47.1878 9.66774 47.0065 9.74277 46.8174 9.74277H45.8489L45.8437 12.7563ZM44.5344 11.0843V9.74277H42.227L44.5344 11.0843Z" fill="#F8B133"/>
<path d="M47.5251 6.77153H46.0293V5.48535H47.5251V6.77153Z" fill="#F8B133"/>
<path d="M39.8037 3.90739C39.4706 3.51254 39.3047 2.95691 39.3047 2.23537C39.3047 1.51383 39.4706 0.974919 39.8037 0.583923C40.1368 0.192926 40.6063 0 41.2172 0H45.7497C46.3611 0 46.8327 0.19507 47.1645 0.585209C47.4963 0.975348 47.661 1.52583 47.6584 2.23666C47.6584 2.95691 47.4912 3.51254 47.1593 3.90868C46.8275 4.30482 46.3529 4.50161 45.7497 4.50161H41.2172C40.6067 4.50161 40.1356 4.30354 39.8037 3.90739ZM46.2024 2.86945C46.3028 2.74255 46.3529 2.53162 46.3529 2.23666C46.3529 1.95113 46.304 1.74662 46.2076 1.62315C46.1515 1.55801 46.0808 1.50722 46.0011 1.475C45.9215 1.44278 45.8353 1.43008 45.7497 1.43794H41.2172C41.134 1.43076 41.0503 1.44319 40.9728 1.47424C40.8953 1.50529 40.8261 1.55409 40.7709 1.61672C40.6783 1.73633 40.632 1.94341 40.632 2.23666C40.632 2.5299 40.6796 2.75112 40.7761 2.87974C40.8307 2.94339 40.8996 2.99322 40.9772 3.02518C41.0547 3.05714 41.1388 3.07033 41.2224 3.06367H45.7548C45.8394 3.06857 45.924 3.05356 46.0018 3.01983C46.0795 2.9861 46.1482 2.93459 46.2024 2.86945V2.86945Z" fill="#F8B133"/>
<path d="M47.6521 14.4644C47.6518 14.658 47.5746 14.8435 47.4377 14.9802C47.3007 15.1169 47.1151 15.1937 46.9215 15.1937H42.5215C42.3858 15.1947 42.2511 15.1688 42.1254 15.1176C41.9997 15.0663 41.8853 14.9907 41.789 14.8951C41.6926 14.7994 41.6161 14.6856 41.5639 14.5603C41.5118 14.435 41.4849 14.3005 41.4849 14.1648V13.7403H46.9215C47.1153 13.7403 47.3011 13.8173 47.4381 13.9543C47.5751 14.0913 47.6521 14.2771 47.6521 14.4709V14.4644ZM40.0238 15.1937H40.047C39.9511 15.1939 39.8561 15.1751 39.7675 15.1386C39.6789 15.102 39.5983 15.0483 39.5305 14.9806C39.4626 14.9128 39.4088 14.8324 39.372 14.7438C39.3353 14.6552 39.3164 14.5603 39.3164 14.4644V14.4644C39.3164 14.2707 39.3934 14.0849 39.5304 13.9479C39.6674 13.8109 39.8532 13.7339 40.047 13.7339H40.0238C40.1197 13.7339 40.2146 13.7528 40.3032 13.7895C40.3917 13.8263 40.4722 13.8801 40.5399 13.9479C40.6077 14.0158 40.6613 14.0963 40.6979 14.185C40.7345 14.2736 40.7532 14.3686 40.7531 14.4644V14.4644C40.7531 14.5602 40.7342 14.655 40.6976 14.7435C40.6609 14.832 40.6072 14.9124 40.5395 14.9801C40.4717 15.0478 40.3914 15.1015 40.3029 15.1382C40.2144 15.1748 40.1196 15.1937 40.0238 15.1937V15.1937Z" fill="#F8B133"/>
</svg>
