<svg width="25" height="25" viewBox="0 0 25 25" fill="none" xmlns="http://www.w3.org/2000/svg">
<path d="M1.33681 14.5865C1.33304 15.1438 1.33304 15.7008 1.33681 16.2574C1.33278 16.3589 1.36164 16.4591 1.4191 16.5429C1.47656 16.6267 1.55955 16.6897 1.65571 16.7225C1.90101 16.8093 2.15857 16.8631 2.42463 16.9339V13.9148C2.15763 13.979 1.91988 14.0214 1.69156 14.095C1.58565 14.1249 1.49296 14.1897 1.42856 14.279C1.36416 14.3682 1.33182 14.4766 1.33681 14.5865V14.5865Z" fill="#F8B133"/>
<path d="M23.6482 16.2638C23.6548 15.7072 23.6699 15.1496 23.6378 14.5939C23.6283 14.5067 23.6 14.4225 23.5549 14.3473C23.5098 14.272 23.4489 14.2075 23.3764 14.158C23.134 14.0297 22.8453 13.9863 22.5547 13.9014V16.9327C22.8123 16.8723 23.0415 16.8299 23.2651 16.7629C23.3767 16.7366 23.4758 16.6726 23.5456 16.5816C23.6154 16.4907 23.6516 16.3784 23.6482 16.2638V16.2638Z" fill="#F8B133"/>
<path d="M21.3877 17.4471C21.4405 16.1054 21.4321 14.7601 21.4009 13.4175C21.3821 12.5826 20.6924 11.9533 19.8565 11.8919C19.3951 11.8589 18.9375 11.7976 18.4762 11.7636C17.3554 11.6797 16.2355 11.5815 15.1118 11.5334C14.2504 11.4966 13.3853 11.5268 12.521 11.5268C10.0378 11.4155 7.57163 11.6315 5.10636 11.8882C4.21573 11.9825 3.59116 12.6052 3.57606 13.51C3.55436 14.8016 3.55153 16.0941 3.59304 17.3838C3.63267 18.6047 4.75633 19.7566 5.97435 19.8548C7.36879 19.9661 8.72454 19.8623 10.0397 19.2755C11.6323 18.566 13.2947 18.5509 14.8891 19.2519C16.2147 19.8359 17.5714 19.9614 18.9772 19.8604C20.1754 19.7727 21.3415 18.6481 21.3877 17.4471ZM5.80169 13.7487C5.65313 13.7496 5.51001 13.6929 5.40235 13.5905C5.29469 13.4881 5.23088 13.348 5.22429 13.1996C5.22154 13.0494 5.27854 12.9044 5.38275 12.7963C5.48697 12.6882 5.62986 12.6259 5.77999 12.6231C5.93013 12.6204 6.0752 12.6774 6.18331 12.7816C6.29142 12.8858 6.3537 13.0287 6.35645 13.1788C6.35579 13.3272 6.29759 13.4695 6.19412 13.5757C6.09064 13.682 5.94996 13.744 5.80169 13.7487V13.7487ZM8.02261 13.7487C7.9128 13.7472 7.80586 13.7133 7.71518 13.6514C7.6245 13.5895 7.55408 13.5022 7.51275 13.4004C7.47141 13.2987 7.46099 13.187 7.48278 13.0794C7.50457 12.9717 7.55761 12.8729 7.63527 12.7953C7.71292 12.7176 7.81174 12.6646 7.91938 12.6428C8.02702 12.621 8.13869 12.6314 8.24043 12.6727C8.34217 12.7141 8.42948 12.7845 8.49142 12.8752C8.55336 12.9659 8.58719 13.0728 8.58868 13.1826C8.59106 13.2578 8.57795 13.3327 8.55017 13.4027C8.52238 13.4726 8.48051 13.5361 8.42716 13.5892C8.37381 13.6423 8.31012 13.6838 8.24004 13.7113C8.16996 13.7387 8.09499 13.7514 8.01978 13.7487H8.02261Z" fill="#F8B133"/>
<path d="M5.25313 10.7401C6.54756 10.6457 7.83916 10.5089 9.13171 10.3778H10.4441H14.5491L15.9133 10.3985C17.2417 10.5099 18.5698 10.6291 19.8976 10.7561C20.8571 10.8505 21.5958 11.2703 22.0675 12.0345C22.4075 11.9509 22.705 11.7457 22.904 11.4577C23.1031 11.1697 23.1898 10.8189 23.1479 10.4713C23.106 10.1238 22.9384 9.8036 22.6766 9.57119C22.4148 9.33878 22.077 9.21022 21.7269 9.20977H14.2462C14.099 8.64369 13.9547 8.07761 13.8094 7.52097C13.7292 7.21246 13.5745 7.06999 13.2622 7.06245C12.7735 7.05112 12.2854 7.05112 11.7979 7.06245C11.4706 7.06999 11.3262 7.20397 11.2319 7.53418C11.1507 7.81722 11.0686 8.10026 10.9903 8.3833L10.7639 9.21071H3.26053C2.91187 9.21136 2.57541 9.33909 2.31416 9.56998C2.0529 9.80088 1.88478 10.1191 1.84128 10.465C1.79778 10.811 1.88188 11.1609 2.07783 11.4493C2.27378 11.7377 2.56815 11.9447 2.90579 12.0317C3.42658 11.225 4.21343 10.8165 5.25313 10.7401Z" fill="#F8B133"/>
<path d="M15.5113 21.5755C13.567 22.3425 11.4027 22.335 9.46375 21.5548C9.37665 21.5196 9.28347 21.5019 9.18953 21.5027C9.0956 21.5035 9.00274 21.5229 8.91627 21.5596C8.8298 21.5963 8.75141 21.6496 8.68557 21.7167C8.61973 21.7837 8.56773 21.863 8.53255 21.9501C8.49736 22.0372 8.47967 22.1304 8.4805 22.2243C8.48132 22.3182 8.50064 22.4111 8.53735 22.4975C8.57405 22.584 8.62743 22.6624 8.69444 22.7282C8.76144 22.7941 8.84076 22.8461 8.92786 22.8813C11.2075 23.7995 13.7525 23.8086 16.0387 22.9067C16.128 22.8734 16.2097 22.8227 16.279 22.7574C16.3484 22.6922 16.4041 22.6137 16.4427 22.5267C16.4814 22.4396 16.5024 22.3458 16.5043 22.2505C16.5063 22.1553 16.4892 22.0607 16.4541 21.9721C16.419 21.8836 16.3666 21.8029 16.3 21.7348C16.2334 21.6668 16.1538 21.6127 16.066 21.5758C15.9782 21.5389 15.884 21.5198 15.7887 21.5198C15.6935 21.5197 15.5992 21.5387 15.5113 21.5755V21.5755Z" fill="#F8B133"/>
<path d="M2.92578 8.27916C3.03555 8.261 3.14662 8.25185 3.25788 8.2518H3.97963C4.02492 8.13009 4.07398 8.01027 4.12304 7.89045C5.0474 5.71112 6.78354 3.97701 8.96395 3.0552C8.9932 3.04199 9.02339 3.03067 9.0583 3.01841V3.44862C9.06939 3.57861 9.12887 3.69969 9.22495 3.78793C9.32104 3.87616 9.44675 3.92512 9.5772 3.92512C9.70766 3.92512 9.83336 3.87616 9.92945 3.78793C10.0255 3.69969 10.085 3.57861 10.0961 3.44862V1.8287C10.0964 1.62225 10.1784 1.42432 10.3243 1.27826C10.4702 1.13219 10.668 1.0499 10.8745 1.0494H14.1124C14.3179 1.05138 14.5143 1.13434 14.6589 1.28024C14.8036 1.42615 14.8849 1.62323 14.8851 1.8287V3.4524C14.8962 3.58238 14.9557 3.70347 15.0518 3.7917C15.1479 3.87994 15.2736 3.9289 15.404 3.9289C15.5345 3.9289 15.6602 3.87994 15.7563 3.7917C15.8524 3.70347 15.9118 3.58238 15.9229 3.4524V3.01841L16.0173 3.05897C18.1933 3.98207 19.9257 5.71441 20.8488 7.89045C20.8988 8.01027 20.9431 8.13009 20.9922 8.2518H21.7243C21.8317 8.25181 21.9389 8.26001 22.0451 8.27633C21.5676 6.83034 20.7692 5.5111 19.7097 4.41739C18.6501 3.32369 17.3568 2.48385 15.9267 1.96078V1.8287C15.9262 1.34609 15.7343 0.883369 15.3932 0.542022C15.052 0.200675 14.5894 0.00856164 14.1068 0.0078125H10.8688C10.3862 0.00856164 9.92357 0.200675 9.5824 0.542022C9.24123 0.883369 9.04936 1.34609 9.04886 1.8287V1.96833C7.61836 2.49032 6.32449 3.32916 5.26411 4.42205C4.20374 5.51494 3.40434 6.83355 2.92578 8.27916V8.27916Z" fill="#F8B133"/>
<path d="M4.03822 20.2885L2.61453 21.7122C2.31019 21.48 1.93362 21.3627 1.55125 21.3811V20.532C1.74117 20.4796 1.90565 20.3601 2.0142 20.1957C2.12275 20.0313 2.168 19.8331 2.14157 19.6378C2.11513 19.4426 2.0188 19.2636 1.87044 19.1339C1.72207 19.0043 1.53174 18.9329 1.33472 18.9329C1.1377 18.9329 0.947369 19.0043 0.799004 19.1339C0.65064 19.2636 0.55431 19.4426 0.527874 19.6378C0.501438 19.8331 0.54669 20.0313 0.65524 20.1957C0.763789 20.3601 0.928273 20.4796 1.1182 20.532V21.4556C0.790732 21.5635 0.505992 21.7726 0.305034 22.0528C0.104075 22.3329 -0.00271796 22.6697 5.2575e-05 23.0144C0.00282311 23.3592 0.115014 23.6942 0.320449 23.9711C0.525884 24.248 0.813947 24.4525 1.1431 24.5551C1.47226 24.6577 1.8255 24.6531 2.15189 24.542C2.47828 24.4309 2.76095 24.219 2.95916 23.9369C3.15736 23.6548 3.26084 23.317 3.25469 22.9723C3.24854 22.6276 3.13307 22.2937 2.92493 22.0189L4.34012 20.5952C4.38079 20.5546 4.40368 20.4996 4.40377 20.4422C4.40386 20.3848 4.38113 20.3297 4.3406 20.289C4.30006 20.2484 4.24503 20.2255 4.18762 20.2254C4.1302 20.2253 4.0751 20.248 4.03444 20.2885H4.03822Z" fill="#F8B133"/>
<path d="M22.3784 21.7124L20.9547 20.2888C20.914 20.2482 20.8589 20.2255 20.8015 20.2256C20.7441 20.2257 20.6891 20.2486 20.6485 20.2892C20.608 20.3299 20.5853 20.385 20.5854 20.4424C20.5855 20.4998 20.6084 20.5548 20.649 20.5954L22.0765 22.0191C21.8761 22.2807 21.7605 22.5974 21.7453 22.9267H20.8471C20.7948 22.7368 20.6753 22.5723 20.5109 22.4637C20.3464 22.3552 20.1482 22.3099 19.953 22.3364C19.7578 22.3628 19.5787 22.4591 19.4491 22.6075C19.3195 22.7559 19.248 22.9462 19.248 23.1432C19.248 23.3402 19.3195 23.5306 19.4491 23.6789C19.5787 23.8273 19.7578 23.9236 19.953 23.9501C20.1482 23.9765 20.3464 23.9312 20.5109 23.8227C20.6753 23.7141 20.7948 23.5497 20.8471 23.3597H21.7821C21.8587 23.7033 22.0447 24.0127 22.312 24.2416C22.5794 24.4705 22.9137 24.6066 23.265 24.6295C23.6162 24.6523 23.9654 24.5606 24.2601 24.3683C24.5548 24.1759 24.7793 23.8931 24.8997 23.5624C25.0202 23.2317 25.0302 22.8709 24.9283 22.534C24.8263 22.1971 24.6179 21.9024 24.3343 21.6939C24.0506 21.4855 23.7071 21.3747 23.3551 21.378C23.0032 21.3813 22.6618 21.4987 22.3822 21.7124H22.3784Z" fill="#F8B133"/>
<path d="M20.913 4.30267C20.9415 4.30261 20.9696 4.29691 20.9959 4.2859C21.0221 4.27489 21.0459 4.25878 21.0658 4.23851L22.381 2.92332C22.6708 3.145 23.0267 3.26265 23.3915 3.25731V3.81018C23.2015 3.86247 23.0369 3.98189 22.9283 4.14629C22.8196 4.3107 22.7743 4.50892 22.8007 4.70421C22.827 4.89949 22.9234 5.07858 23.0717 5.20826C23.2201 5.33794 23.4105 5.40941 23.6075 5.40941C23.8046 5.40941 23.995 5.33794 24.1433 5.20826C24.2917 5.07858 24.388 4.89949 24.4144 4.70421C24.4408 4.50892 24.3955 4.3107 24.2868 4.14629C24.1782 3.98189 24.0136 3.86247 23.8236 3.81018V3.19315C24.1579 3.0968 24.4526 2.8959 24.6644 2.6199C24.8763 2.34389 24.9941 2.00729 25.0008 1.65942C25.0074 1.31155 24.9024 0.970703 24.7012 0.686832C24.5001 0.402961 24.2132 0.19099 23.8828 0.0819833C23.5524 -0.0270234 23.1958 -0.0273346 22.8652 0.0810955C22.5346 0.189525 22.2474 0.400995 22.0457 0.684515C21.844 0.968034 21.7385 1.3087 21.7445 1.65658C21.7505 2.00446 21.8678 2.34126 22.0791 2.61764L20.7583 3.93283C20.7282 3.96317 20.7077 4.00173 20.6994 4.04367C20.6911 4.0856 20.6954 4.12905 20.7118 4.16855C20.7281 4.20806 20.7557 4.24186 20.7912 4.26572C20.8267 4.28958 20.8684 4.30243 20.9111 4.30267H20.913Z" fill="#F8B133"/>
<path d="M2.61522 2.92361L3.9304 4.2388C3.97085 4.27957 4.02582 4.30264 4.08324 4.30296C4.12599 4.30272 4.16771 4.28987 4.20318 4.26601C4.23864 4.24215 4.26627 4.20835 4.2826 4.16884C4.29892 4.12934 4.30322 4.08589 4.29494 4.04396C4.28667 4.00202 4.26619 3.96346 4.23609 3.93312L2.92561 2.61793C3.05507 2.44851 3.14986 2.25523 3.20458 2.04915C3.25929 1.84307 3.27286 1.62823 3.24451 1.4169H4.10117C4.15356 1.60682 4.27304 1.77131 4.43746 1.87986C4.60188 1.98841 4.80008 2.03366 4.99531 2.00722C5.19055 1.98079 5.36958 1.88446 5.4992 1.73609C5.62883 1.58773 5.70027 1.39739 5.70027 1.20038C5.70027 1.00336 5.62883 0.813025 5.4992 0.664661C5.36958 0.516296 5.19055 0.419966 4.99531 0.393531C4.80008 0.367095 4.60188 0.412347 4.43746 0.520896C4.27304 0.629446 4.15356 0.793929 4.10117 0.983852H3.12091C3.01561 0.740432 2.85236 0.526473 2.64538 0.360638C2.4384 0.194802 2.19399 0.0821279 1.93347 0.0324424C1.67294 -0.0172431 1.40422 -0.00243039 1.15074 0.0755885C0.897254 0.153607 0.666709 0.292463 0.479213 0.480042C0.187987 0.771823 0.0184197 1.1633 0.00479557 1.57532C-0.00882857 1.98735 0.134507 2.38917 0.405822 2.69955C0.677136 3.00994 1.05619 3.20572 1.46633 3.24731C1.87648 3.2889 2.28711 3.17321 2.61522 2.92361V2.92361Z" fill="#F8B133"/>
</svg>
